<svg width="16" height="14" viewBox="0 0 16 14" fill="none" xmlns="http://www.w3.org/2000/svg">
<path d="M14.7145 1.64647C12.9744 -0.0931846 10.1436 -0.0931846 8.40392 1.64647L7.99985 2.0503L7.59602 1.64647C5.85636 -0.0934201 3.0253 -0.0934201 1.28565 1.64647C-0.418688 3.35081 -0.429755 6.05236 1.25998 7.93071C2.80114 9.64328 7.34642 13.3432 7.53927 13.4998C7.67019 13.6063 7.82772 13.6581 7.98431 13.6581C7.98949 13.6581 7.99467 13.6581 7.99962 13.6578C8.16162 13.6654 8.3248 13.6098 8.45996 13.4998C8.65281 13.3432 13.1986 9.64328 14.7402 7.93047C16.4297 6.05236 16.4186 3.35081 14.7145 1.64647ZM13.69 6.98553C12.4884 8.32041 9.18545 11.0735 7.99962 12.0505C6.81379 11.0738 3.51155 8.32088 2.31018 6.98576C1.13141 5.67561 1.12035 3.80974 2.28451 2.64557C2.87908 2.05124 3.6599 1.75385 4.44072 1.75385C5.22154 1.75385 6.00236 2.05101 6.59692 2.64557L7.48511 3.53377C7.59084 3.63949 7.72412 3.7026 7.86399 3.72473C8.09098 3.77348 8.33728 3.71013 8.51389 3.534L9.40255 2.64557C10.5919 1.45668 12.5265 1.45692 13.7152 2.64557C14.8794 3.80974 14.8683 5.67561 13.69 6.98553Z" fill="#222222"/>
</svg>
