<svg width="14" height="14" viewBox="0 0 14 14" fill="none" xmlns="http://www.w3.org/2000/svg">
<path d="M9.28201 0.666656V1.62392H10.5265C10.9624 1.625 11.3929 1.52679 11.7853 1.33674L11.8427 1.30802L1.31278 11.8379V11.8092C1.5118 11.4174 1.61824 10.9851 1.62389 10.5456V9.28204H0.666626V13.1111H4.49569V12.1538H3.2321C2.80854 12.1533 2.39012 12.2465 2.0068 12.4267L1.95415 12.4506L12.4841 1.92067V1.96854C12.2755 2.36455 12.1624 2.80381 12.1538 3.25127V4.49572H13.1111V0.666656H9.28201Z" fill="#222222"/>
<path d="M6.21876 5.59178L1.95893 1.33196H1.98765C2.37235 1.52015 2.79427 1.61988 3.22252 1.62392H4.49569V0.666656H0.666626V4.49572H1.62389V3.22255C1.6238 2.8042 1.53235 2.39093 1.35586 2.01161L1.33193 1.95896L5.59175 6.21879L6.21876 5.59178Z" fill="#222222"/>
<path d="M12.1538 9.28203V10.56C12.1539 10.9783 12.2454 11.3916 12.4219 11.7709L12.441 11.8092L8.18597 7.55417L7.55896 8.18118L11.814 12.4362H11.7757C11.3961 12.2541 10.981 12.1577 10.56 12.1538H9.28204V13.1111H13.1111V9.28203H12.1538Z" fill="#222222"/>
</svg>
