<svg width="113" height="28" viewBox="0 0 113 28" fill="none" xmlns="http://www.w3.org/2000/svg">
<circle cx="99.55" cy="13" r="13" fill="#D6001C"/>
<path fill-rule="evenodd" clip-rule="evenodd" d="M15.2215 1.4999H14.755V17.5299C14.755 18.7666 14.4283 19.7699 13.775 20.5399C13.1216 21.3099 12.13 21.6949 10.8 21.6949C9.4933 21.6949 8.5133 21.3099 7.85997 20.5399C7.20663 19.7699 6.87997 18.7666 6.87997 17.5299V1.4999H0.964966V17.9499C0.964966 19.4899 1.20997 20.8316 1.69997 21.9749C2.2133 23.1182 2.9133 24.0632 3.79997 24.8099C4.70997 25.5332 5.75997 26.0816 6.94997 26.4549C8.13997 26.8282 9.4233 27.0149 10.8 27.0149C12.1766 27.0149 13.46 26.8282 14.65 26.4549C15.8633 26.0816 16.9133 25.5332 17.8 24.8099C18.71 24.0632 19.41 23.1182 19.9 21.9749C20.4133 20.8316 20.67 19.4899 20.67 17.9499V6.94833L15.2215 1.4999ZM30.546 13.7499C30.546 15.1966 30.826 16.4799 31.386 17.5999C31.9693 18.6966 32.7743 19.5599 33.801 20.1899C34.851 20.8199 36.076 21.1349 37.476 21.1349C38.8526 21.1349 40.0543 20.8199 41.081 20.1899C41.1389 20.1552 41.1961 20.1197 41.2525 20.0835L45.4899 24.321C44.6648 24.9202 43.7552 25.4215 42.761 25.8249C41.151 26.4549 39.3893 26.7699 37.476 26.7699C35.5393 26.7699 33.766 26.4549 32.156 25.8249C30.546 25.1716 29.146 24.2616 27.956 23.0949C26.7893 21.9282 25.8793 20.5516 25.226 18.9649C24.596 17.3782 24.281 15.6399 24.281 13.7499C24.281 11.8599 24.6076 10.1332 25.261 8.5699C25.7058 7.54225 26.2615 6.60535 26.9281 5.75918L31.293 10.1241C30.795 11.177 30.546 12.3857 30.546 13.7499ZM48.3031 21.4773L43.7891 16.9633C44.177 16.0008 44.371 14.9297 44.371 13.7499C44.371 12.3032 44.091 11.0316 43.531 9.9349C42.971 8.8149 42.1776 7.9399 41.151 7.3099C40.1243 6.6799 38.8993 6.3649 37.476 6.3649C36.1695 6.3649 35.0154 6.63923 34.0137 7.1879L29.8923 3.0665C30.6236 2.59823 31.4132 2.20436 32.261 1.8849C33.871 1.2549 35.6093 0.939902 37.476 0.939902C39.366 0.939902 41.1043 1.2549 42.691 1.8849C44.301 2.49157 45.701 3.36657 46.891 4.5099C48.081 5.65324 49.0026 7.00657 49.656 8.5699C50.3093 10.1332 50.636 11.8599 50.636 13.7499C50.636 15.6399 50.3093 17.3782 49.656 18.9649C49.2963 19.8708 48.8453 20.7083 48.3031 21.4773ZM60.7261 13.5049L59.2561 25.9999H53.0261L56.9811 0.274902L67.4111 15.2199L77.8761 0.274902L81.8311 25.9999H75.6011L74.1311 13.5049L67.4111 23.7249L60.7261 13.5049Z" fill="#222222"/>
</svg>
